<svg width="123" height="35" viewBox="0 0 123 35" fill="none" xmlns="http://www.w3.org/2000/svg">
<path d="M17.3978 28.9052C19.6466 26.4221 21.7549 24.3139 23.6289 21.9713C24.0037 21.5028 23.91 20.191 23.4884 19.3945C23.2073 18.8323 21.9892 18.2701 21.2395 18.1295C20.771 18.0358 20.3025 18.5512 19.9277 18.926C17.96 21.0343 15.9454 23.1426 14.0245 25.3446C12.8064 26.7032 11.2603 26.9844 9.01144 25.9536C7.2311 25.1103 5.40391 24.5013 3.62357 23.939C0.953069 23.0489 -0.265056 20.6126 1.14047 18.8791C2.68655 17.0519 4.32634 15.3653 5.91927 13.585C6.15353 13.3507 6.34093 13.0696 6.76259 12.4606C5.26336 11.8983 4.04523 11.3361 2.87396 11.055C0.297155 10.446 -0.593013 7.49435 0.390857 6.27623C2.21805 4.26164 3.99838 2.34075 5.87242 0.560409C6.34093 0.0918993 7.27795 -0.142356 8.02757 0.0918993C11.5414 1.26317 15.1021 2.62185 19.0375 4.02738C18.4285 4.777 17.96 5.43291 17.4446 5.99512C15.9922 7.63491 14.493 9.22784 12.9938 10.8208C12.1973 11.6641 12.0568 12.7417 13.3217 14.0535C14.493 15.2716 15.5706 15.2716 16.4139 14.4283C18.4285 12.2732 20.4431 10.118 22.364 7.91601C23.5821 6.51048 25.175 6.08882 27.4707 7.07269C29.3448 7.86916 31.2188 8.38452 33.0928 9.22784C33.9362 9.60265 35.2011 10.4928 35.4354 11.1487C35.8102 12.1794 35.7633 13.5381 35.248 14.194C33.8425 16.1149 32.109 17.7547 30.516 19.5351C30.2818 19.7693 30.0944 20.0504 29.6727 20.5658C31.1719 21.128 32.4369 21.5496 33.7019 22.0182C35.9976 22.8615 37.2626 25.1103 36.1381 26.6095C34.4515 28.7647 32.5306 30.6387 30.6097 32.5128C30.2349 32.8876 29.3916 33.075 28.7357 32.8876C25.0345 31.7163 21.4269 30.3576 17.3978 28.9052Z" fill="white"/>
<path d="M48.7881 24.8761C47.6637 24.3608 46.7735 23.658 46.1176 22.8147C45.4617 21.9245 45.1338 20.9407 45.0869 19.8631H48.9287C48.9755 20.6127 49.3504 21.2686 50.0063 21.784C50.6622 22.2993 51.5055 22.5336 52.4894 22.5336C53.5201 22.5336 54.3166 22.3462 54.9256 21.9245C55.4878 21.5029 55.7689 20.9875 55.7689 20.3785C55.7689 19.7225 55.441 19.2072 54.8319 18.8792C54.176 18.5513 53.1921 18.1765 51.7866 17.8016C50.4279 17.4268 49.3504 17.0989 48.507 16.7241C47.6637 16.3961 46.9141 15.8339 46.305 15.1311C45.696 14.4284 45.368 13.4914 45.368 12.3201C45.368 11.3831 45.6491 10.4929 46.2113 9.69643C46.7735 8.89997 47.57 8.2909 48.6476 7.82239C49.6783 7.35388 50.8964 7.11963 52.2551 7.11963C54.2697 7.11963 55.9563 7.63499 57.1745 8.66571C58.4394 9.69643 59.0954 11.102 59.1891 12.8823H55.4878C55.441 12.0858 55.113 11.4299 54.504 10.9614C53.9417 10.4929 53.1453 10.2586 52.1146 10.2586C51.1307 10.2586 50.3811 10.446 49.8657 10.8209C49.3504 11.1957 49.0692 11.6642 49.0692 12.2732C49.0692 12.7417 49.2566 13.1634 49.5846 13.4914C49.9126 13.8193 50.3342 14.0536 50.8496 14.241C51.3649 14.4284 52.0677 14.6626 53.0516 14.9437C54.3634 15.2717 55.441 15.6465 56.2374 16.0213C57.0808 16.3961 57.7835 16.9115 58.3926 17.6142C59.0017 18.317 59.3296 19.2072 59.3296 20.3785C59.3296 21.4092 59.0485 22.2993 58.4863 23.0958C57.9241 23.8923 57.1276 24.5482 56.0969 24.9698C55.0662 25.4384 53.848 25.6726 52.4894 25.6726C51.1775 25.6258 49.9126 25.3915 48.7881 24.8761Z" fill="white"/>
<path d="M64.5297 10.4464V20.3788C64.5297 21.0347 64.6703 21.5501 64.9982 21.8312C65.3262 22.1123 65.8415 22.2528 66.5912 22.2528H68.8869V25.345H65.9821C64.2955 25.345 63.0305 24.9702 62.1403 24.1737C61.2501 23.3772 60.8285 22.1123 60.8285 20.3788V10.4464H58.6733V7.40106H60.7816V2.99707H64.5297V7.44791H68.8869V10.4932H64.5297V10.4464Z" fill="white"/>
<path d="M68.934 11.5236C69.6836 10.1181 70.7143 9.04052 71.9793 8.2909C73.2911 7.54129 74.6967 7.11963 76.2427 7.11963C77.6483 7.11963 78.8664 7.40073 79.944 7.96295C80.9747 8.52516 81.818 9.18107 82.4739 10.0244V7.40073H86.222V25.2978H82.4739V22.6273C81.8649 23.4706 80.9747 24.1734 79.8971 24.7356C78.8195 25.2978 77.6014 25.5789 76.1959 25.5789C74.6498 25.5789 73.2443 25.2041 71.9793 24.4076C70.7143 23.6112 69.6836 22.5336 68.934 21.0812C68.1844 19.6288 67.8096 18.0359 67.8096 16.2556C67.8096 14.5221 68.1844 12.9291 68.934 11.5236ZM81.6775 13.1634C81.1621 12.2732 80.5062 11.5705 79.6629 11.102C78.8195 10.6335 77.9294 10.3992 76.9924 10.3992C76.0553 10.3992 75.1652 10.6335 74.3219 11.102C73.4785 11.5705 72.8226 12.2732 72.3073 13.1634C71.7919 14.0536 71.5576 15.1311 71.5576 16.3493C71.5576 17.5674 71.7919 18.645 72.3073 19.582C72.8226 20.519 73.4785 21.2218 74.3219 21.6903C75.1652 22.1588 76.0553 22.4399 76.9924 22.4399C77.9294 22.4399 78.8195 22.2056 79.6629 21.7371C80.5062 21.2686 81.1621 20.5659 81.6775 19.6288C82.1928 18.6918 82.4271 17.6142 82.4271 16.3961C82.4271 15.178 82.1928 14.0536 81.6775 13.1634Z" fill="white"/>
<path d="M98.7311 7.96292C99.8087 8.52513 100.652 9.18105 101.261 10.0244V7.40071H105.009V25.6257C105.009 27.2655 104.681 28.7179 103.978 30.0297C103.276 31.3416 102.292 32.3254 100.98 33.075C99.6681 33.8247 98.122 34.1995 96.2949 34.1995C93.8586 34.1995 91.844 33.6373 90.2511 32.5128C88.6581 31.3884 87.7211 29.8423 87.5337 27.8746H91.1881C91.4692 28.8116 92.0783 29.5612 93.0153 30.1234C93.9523 30.6856 95.0299 30.9667 96.2949 30.9667C97.7941 30.9667 99.0122 30.4982 99.9024 29.6081C100.839 28.7179 101.261 27.3592 101.261 25.6257V22.6273C100.652 23.4706 99.7618 24.1734 98.7311 24.7356C97.6535 25.2978 96.4354 25.5789 95.0767 25.5789C93.5306 25.5789 92.0783 25.2041 90.8133 24.4076C89.5015 23.6111 88.5176 22.5336 87.768 21.0812C87.0184 19.6288 86.6436 18.0359 86.6436 16.2555C86.6436 14.4752 87.0184 12.8823 87.768 11.4767C88.5176 10.0712 89.5483 8.99364 90.8133 8.24403C92.1251 7.49441 93.5306 7.07275 95.0767 7.07275C96.4354 7.16646 97.6535 7.44756 98.7311 7.96292ZM100.465 13.1634C99.9492 12.2732 99.2933 11.5704 98.45 11.1019C97.6067 10.6334 96.7165 10.3992 95.7795 10.3992C94.8425 10.3992 93.9523 10.6334 93.109 11.1019C92.2657 11.5704 91.6098 12.2732 91.0944 13.1634C90.579 14.0535 90.3448 15.1311 90.3448 16.3492C90.3448 17.5674 90.579 18.6449 91.0944 19.582C91.6098 20.519 92.2657 21.2217 93.109 21.6903C93.9523 22.1588 94.8425 22.4399 95.7795 22.4399C96.7165 22.4399 97.6067 22.2056 98.45 21.7371C99.2933 21.2686 99.9492 20.5658 100.465 19.6288C100.98 18.6918 101.214 17.6142 101.214 16.3961C101.214 15.178 100.98 14.0535 100.465 13.1634Z" fill="white"/>
<path d="M122.907 17.7548H109.226C109.32 19.2072 109.882 20.3316 110.819 21.2218C111.756 22.112 112.927 22.5336 114.333 22.5336C116.347 22.5336 117.753 21.6903 118.549 20.0505H122.532C121.969 21.6903 121.032 23.049 119.58 24.0797C118.175 25.1104 116.394 25.6726 114.286 25.6726C112.552 25.6726 111.053 25.2978 109.695 24.5014C108.336 23.7517 107.258 22.6273 106.509 21.2686C105.759 19.8631 105.337 18.2702 105.337 16.3961C105.337 14.569 105.712 12.9292 106.462 11.5236C107.211 10.1181 108.242 9.04054 109.601 8.29093C110.96 7.54131 112.506 7.1665 114.286 7.1665C115.973 7.1665 117.472 7.54131 118.784 8.29093C120.095 9.04054 121.126 10.0713 121.876 11.3831C122.625 12.6949 123 14.241 123 15.9745C123 16.6304 122.953 17.2395 122.907 17.7548ZM119.158 14.8032C119.158 13.4445 118.643 12.367 117.706 11.5236C116.769 10.6803 115.551 10.3055 114.145 10.3055C112.88 10.3055 111.756 10.7272 110.866 11.5236C109.976 12.3201 109.413 13.4445 109.226 14.8032H119.158Z" fill="white"/>
</svg>
