<svg xmlns="http://www.w3.org/2000/svg" viewBox="0 0 217.92 71.03"><g id="Calque_2" data-name="Calque 2"><g id="Calque_1-2" data-name="Calque 1"><path d="M110.1,0h69.6a2.47,2.47,0,0,1,1.67.65L217.13,33.7a2.46,2.46,0,0,1,0,3.62L181.37,70.37a2.48,2.48,0,0,1-1.67.66H110.1a2.47,2.47,0,0,1-1.67-4.28l31.85-29.43a2.47,2.47,0,0,0,0-3.62L108.43,4.27A2.46,2.46,0,0,1,110.1,0Z"/><path d="M106.83,39.78,73.74,70.37a2.48,2.48,0,0,1-1.67.66H2.47A2.47,2.47,0,0,1,.8,66.75L33.89,36.17a2.5,2.5,0,0,1,1.68-.66h69.59A2.46,2.46,0,0,1,106.83,39.78Z"/></g></g></svg>